<svg version="1.1" xmlns="http://www.w3.org/2000/svg" viewBox="-273.40800018310546 -1011.7120239257813 4681.728125 1329.1520141601563"><desc>Created with Snap</desc><defs></defs><g><g><g transform="matrix(1.024,0,0,-1.024,0,0)"><path d="M722 650L722 555L647 555L647 0L583 -1L223 450L219 450L219 95L314 95L314 0L43 0L43 95L115 95L115 555L33 555L33 650L196 650L539 220L543 220L543 555L448 555L448 650L722 650ZM1115 154L1204 137Q1198 78 1146 34Q1094 -10 1003 -10Q905 -10 842 47Q779 105 779 217Q779 320 836 389Q894 458 997 458Q1090 458 1144 402Q1199 347 1200 262Q1200 234 1194 202L891 202Q900 76 1011 76Q1063 76 1085 101Q1108 126 1115 154ZM892 268L1090 268Q1094 308 1071 343Q1049 379 996 379Q948 379 923 347Q898 315 892 268ZM1593 154L1682 137Q1676 78 1624 34Q1572 -10 1481 -10Q1383 -10 1320 47Q1257 105 1257 217Q1257 320 1314 389Q1372 458 1475 458Q1568 458 1622 402Q1677 347 1678 262Q1678 234 1672 202L1369 202Q1378 76 1489 76Q1541 76 1563 101Q1586 126 1593 154ZM1370 268L1568 268Q1572 308 1549 343Q1527 379 1474 379Q1426 379 1401 347Q1376 315 1370 268ZM2256 82L2256 0L2083 0L2083 86Q2063 47 2025 18Q1988 -10 1927 -10Q1839 -10 1787 50Q1736 110 1736 215Q1736 311 1784 384Q1833 458 1937 458Q1990 458 2026 436Q2063 415 2083 379L2083 606L1986 606L1986 688L2190 688L2190 82L2256 82ZM2083 216L2083 250Q2082 306 2049 339Q2016 372 1968 372Q1914 372 1880 331Q1847 291 1847 221Q1847 150 1880 113Q1914 76 1961 76Q2016 76 2049 121Q2082 166 2083 216ZM3073 204L3059 62Q3024 29 2959 9Q2895 -10 2826 -10Q2685 -10 2593 81Q2502 173 2502 317Q2502 398 2536 477Q2570 556 2642 608Q2714 660 2826 660Q2908 660 2966 637Q3024 614 3058 583L3075 442L2984 433L2968 523Q2908 562 2824 562Q2732 562 2676 498Q2621 434 2621 323Q2621 207 2680 147Q2739 88 2835 88Q2915 88 2966 116L2982 213L3073 204ZM3171 304L3190 416Q3240 440 3279 449Q3318 458 3369 458Q3444 458 3492 420Q3541 382 3541 306L3541 104Q3541 64 3574 64Q3583 64 3597 68L3598 9Q3565 -10 3526 -10Q3441 -10 3434 79L3434 81Q3414 46 3377 18Q3341 -10 3287 -10Q3240 -10 3194 18Q3149 47 3149 118Q3149 201 3215 227Q3281 254 3358 254Q3377 254 3397 253Q3417 252 3434 250L3434 275Q3434 315 3420 347Q3406 379 3350 379Q3329 379 3310 376Q3292 373 3275 364L3257 295L3171 304ZM3434 178L3434 194Q3417 196 3399 198Q3381 200 3362 200Q3322 200 3290 186Q3259 172 3259 130Q3259 69 3324 69Q3362 69 3396 96Q3430 124 3434 178ZM3926 157L4005 132Q3986 -10 3847 -10Q3775 -10 3732 28Q3690 66 3690 134L3690 370L3624 370L3624 449L3690 449L3690 588L3797 588L3797 449L3964 449L3964 370L3797 370L3797 151Q3797 80 3859 80Q3876 80 3897 92Q3918 105 3926 157Z" fill="#6daedb" style=""></path></g></g></g></svg>